<svg width="36" height="48" viewBox="0 0 36 48" fill="none" xmlns="http://www.w3.org/2000/svg">
<path d="M35.7168 38.7918C34.6745 35.6896 30.5201 33.7478 27.5582 32.4462C26.3979 31.938 23.1855 31.0757 22.7994 29.6147C22.6612 29.0884 22.6799 28.592 22.7932 28.1164C22.613 28.1518 22.4298 28.17 22.2461 28.1707H20.3162C19.5757 28.1699 18.8658 27.8754 18.3422 27.3517C17.8187 26.828 17.5242 26.1181 17.5235 25.3776C17.5235 23.8389 18.776 22.588 20.3162 22.588H22.2461C22.8838 22.588 23.4883 22.8038 23.9758 23.1889C24.6695 23.0974 25.3542 22.9475 26.0227 22.7407C26.8668 20.9722 27.5251 18.8575 27.6726 17.0373C28.3025 9.24929 23.5281 4.69282 16.6825 5.48052C11.7053 6.05344 8.732 9.76476 8.41061 14.5427C8.08559 19.4128 9.89131 23.0098 11.8093 25.6482C12.6493 26.8018 13.5317 27.5435 13.3961 28.9336C13.2388 30.5773 11.4812 31.0354 10.2241 31.5405C8.73459 32.1388 7.1302 33.0465 6.37252 33.4663C3.76253 34.9076 0.897921 36.6435 0.254095 39.018C-1.17174 44.2804 3.6435 45.8744 7.61876 46.6104C11.0304 47.2397 14.8773 47.2894 18.0416 47.2894C23.7651 47.2894 34.0571 47.0601 35.7168 42.7578C36.1888 41.5369 35.9865 39.5914 35.7168 38.7918Z" fill="#F75D37"/>
<path d="M23.4679 24.5915C23.3357 24.3881 23.1549 24.2208 22.9418 24.1049C22.7288 23.9889 22.4901 23.928 22.2475 23.9275H20.3176C20.1234 23.9224 19.9302 23.9561 19.7493 24.0269C19.5683 24.0976 19.4034 24.2038 19.2643 24.3393C19.1251 24.4749 19.0145 24.6369 18.9389 24.8158C18.8634 24.9948 18.8245 25.1871 18.8245 25.3813C18.8245 25.5756 18.8634 25.7678 18.9389 25.9468C19.0145 26.1258 19.1251 26.2878 19.2643 26.4233C19.4034 26.5588 19.5683 26.6651 19.7493 26.7358C19.9302 26.8065 20.1234 26.8403 20.3176 26.8351H22.2475C22.513 26.8349 22.7733 26.7614 22.9997 26.6227C23.2261 26.4839 23.4098 26.2854 23.5305 26.049C26.2212 25.8373 28.5616 25.0154 30.2043 23.8018C30.5815 24.045 31.0277 24.1873 31.509 24.1873H31.6301C31.9489 24.1874 32.2647 24.1246 32.5593 24.0025C32.8538 23.8805 33.1214 23.7015 33.3468 23.4759C33.5721 23.2504 33.7508 22.9826 33.8725 22.6879C33.9943 22.3932 34.0568 22.0774 34.0563 21.7585V16.9101C34.0565 16.4522 33.9266 16.0037 33.6817 15.6167C33.4369 15.2297 33.0873 14.9201 32.6735 14.724C32.3174 6.93859 25.8724 0.710449 17.9995 0.710449C10.1266 0.710449 3.68058 6.93859 3.32606 14.724C2.91192 14.9198 2.56196 15.2293 2.31694 15.6163C2.07192 16.0033 1.94194 16.4521 1.94214 16.9101V21.7585C1.94173 22.0772 2.00412 22.3928 2.12575 22.6874C2.24737 22.9819 2.42585 23.2497 2.65097 23.4752C2.8761 23.7008 3.14347 23.8798 3.43779 24.0019C3.73212 24.1241 4.04764 24.1871 4.36632 24.1873H4.48898C4.80778 24.1873 5.12343 24.1244 5.41791 24.0023C5.71238 23.8801 5.9799 23.7012 6.20518 23.4756C6.43046 23.25 6.60908 22.9823 6.73082 22.6877C6.85257 22.393 6.91506 22.0773 6.91472 21.7585V16.9101C6.91448 16.4586 6.78795 16.0161 6.54943 15.6328C6.31091 15.2494 5.9699 14.9403 5.56496 14.7406C5.9112 8.1807 11.3547 2.95194 17.9995 2.95194C24.6417 2.95194 30.0878 8.1807 30.4325 14.7406C30.028 14.9407 29.6874 15.2499 29.4492 15.6332C29.2109 16.0165 29.0846 16.4588 29.0843 16.9101V21.7585C29.0843 22.0804 29.1469 22.3801 29.2571 22.6601C27.8432 23.6719 25.7849 24.3928 23.4679 24.5915Z" fill="#F75D37"/>
</svg>
