<svg width="20" height="12" viewBox="0 0 20 12" fill="none" xmlns="http://www.w3.org/2000/svg">
<path d="M19.9998 5.51851V11.4325C19.9998 11.8114 19.8084 12.0028 19.4334 12.0067H18.5623C18.1991 12.0067 17.9999 11.8036 17.9999 11.4364V10.0146H2.00389V11.4755C1.99998 11.7919 1.80077 11.9989 1.49218 12.0028C1.16796 12.0067 0.843743 12.0067 0.519527 12.0028C0.210936 11.9989 0.0117187 11.7958 0 11.4872V0.534175C0.00781244 0.213865 0.20703 0.00683588 0.527339 0.00292966C0.835931 -0.000976555 1.14843 -0.000976555 1.45702 0.00292966C1.80467 0.00683588 2.00389 0.206053 2.00389 0.557613V6.99115H8.99993V2.61228C8.99993 2.18651 9.18742 2.00291 9.60539 2.00291H16.4608C18.3045 2.00682 19.7733 3.31931 19.9803 5.14742C19.9959 5.26851 19.9998 5.39351 19.9998 5.51851Z" fill="#F75D37"/>
<path d="M5.50389 1.00293C6.88278 1.00293 8.00387 2.12401 7.99996 3.50291C7.99605 4.8818 6.87887 6.00289 5.49998 5.99898C4.12108 5.99898 3.00391 4.8779 3.00391 3.499C3.00391 2.12011 4.12108 1.00293 5.50389 1.00293Z" fill="#F75D37"/>
</svg>
