<svg width="12" height="12" viewBox="0 0 12 12" fill="none" xmlns="http://www.w3.org/2000/svg">
<path d="M11.897 2.12447L11.3111 1.53853C11.2451 1.4726 11.1557 1.43555 11.0625 1.43555H10.614C10.5654 0.639047 9.90227 0.00585938 9.09375 0.00585938H2.90625C2.09773 0.00585938 1.43461 0.639047 1.38598 1.43555H0.9375C0.844242 1.43555 0.754828 1.4726 0.688922 1.53853L0.102984 2.12447C0.0370313 2.1904 0 2.27981 0 2.37305V4.13086C0 4.32502 0.157406 4.48242 0.351562 4.48242C0.545719 4.48242 0.703125 4.32502 0.703125 4.13086V2.51866L1.08312 2.13867H1.38281V6.37823C2.83842 6.66642 9.20238 6.65834 10.6172 6.37823V2.13867H10.9169L11.2969 2.51866V4.13086C11.2969 4.32502 11.4543 4.48242 11.6484 4.48242C11.8426 4.48242 12 4.32502 12 4.13086V2.37305C12 2.27981 11.963 2.1904 11.897 2.12447Z" fill="#F75D37"/>
<path d="M1.78125 11.2656V11.4084C1.78125 11.7316 2.04398 11.9943 2.36719 11.9943H3.46875C3.79195 11.9943 4.05469 11.7316 4.05469 11.4084V11.2795C1.85641 11.2748 1.94421 11.29 1.78125 11.2656Z" fill="#F75D37"/>
<path d="M7.94531 11.2795V11.4084C7.94531 11.7316 8.20805 11.9943 8.53125 11.9943H9.63281C9.95602 11.9943 10.2188 11.7316 10.2188 11.4084V11.2656C10.0558 11.29 10.1438 11.2748 7.94531 11.2795Z" fill="#F75D37"/>
<path d="M1.38281 7.09229V8.39255L3.59911 8.77672C3.72823 8.7991 3.83414 8.89142 3.87401 9.01622L4.37189 10.5762H7.62818L8.12606 9.01622C8.16591 8.89139 8.27184 8.7991 8.40096 8.77672L10.6172 8.39255V7.09229C8.92385 7.36261 3.07702 7.36273 1.38281 7.09229ZM7.05469 8.81841H4.94531C4.75116 8.81841 4.59375 8.661 4.59375 8.46685C4.59375 8.27269 4.75116 8.11529 4.94531 8.11529H7.05469C7.24884 8.11529 7.40625 8.27269 7.40625 8.46685C7.40625 8.661 7.24884 8.81841 7.05469 8.81841Z" fill="#F75D37"/>
<path d="M8.36621 10.576H10.0313C10.3543 10.576 10.6172 10.3132 10.6172 9.99009V9.10596L8.73104 9.43289L8.36621 10.576Z" fill="#F75D37"/>
<path d="M3.6338 10.576L3.26897 9.43289L1.38281 9.10596V9.99009C1.38281 10.3132 1.64566 10.576 1.96875 10.576H3.6338Z" fill="#F75D37"/>
</svg>
