<svg width="56" height="56" viewBox="0 0 56 56" fill="none" xmlns="http://www.w3.org/2000/svg">
<path d="M37.6378 37.331C35.9428 35.6362 33.1854 35.6363 31.4907 37.331L29.8965 38.9251C29.8911 38.9305 29.2826 39.4628 28.0621 39.4628C26.6355 39.4628 24.2064 38.7343 20.7359 35.2638C17.3912 31.9192 16.6091 29.5466 16.542 28.1453C16.4792 26.8339 17.0268 26.1611 17.0906 26.0874L18.6688 24.5092C19.4898 23.6883 19.9419 22.5967 19.9419 21.4356C19.9419 20.2746 19.4897 19.183 18.6688 18.3621L15.6705 15.3637C13.9758 13.6689 11.2182 13.6689 9.52341 15.3637L7.92927 16.9579C7.89808 16.989 7.86851 17.0218 7.84067 17.056C7.76135 17.1535 5.89926 19.4927 6.00428 23.6763C6.06375 26.0449 6.73621 28.5475 8.00292 31.1145C9.54463 34.2386 11.9835 37.4798 15.2518 40.7481C18.5201 44.0164 21.7612 46.4552 24.8855 47.9969C27.4524 49.2637 29.955 49.9361 32.3237 49.9955C32.4383 49.9985 32.5515 49.9998 32.6634 49.9998C36.6336 49.9998 38.849 48.2363 38.9439 48.1592C38.978 48.1313 39.0109 48.1017 39.0421 48.0706L40.6361 46.4765C41.4572 45.6555 41.9093 44.564 41.9092 43.4029C41.9092 42.2419 41.4571 41.1504 40.6361 40.3293L37.6378 37.331ZM38.7009 6C32.4707 6 27.402 11.0687 27.402 17.2989C27.402 21.7974 30.0708 25.841 34.132 27.6354V30.5888C34.132 30.8156 34.1918 31.0384 34.3055 31.2346C34.4191 31.4309 34.5825 31.5937 34.7792 31.7066C34.9759 31.8196 35.1989 31.8786 35.4257 31.8778C35.6525 31.877 35.8751 31.8163 36.071 31.702L42.5254 27.9332C47.0019 26.3239 49.9999 22.067 49.9999 17.2989C49.9999 11.0687 44.9312 6 38.7009 6ZM39.9899 18.588V20.0901C39.9899 20.802 39.4128 21.3791 38.7009 21.3791C37.989 21.3791 37.4118 20.802 37.4118 20.0901V18.588H35.9097C35.1978 18.588 34.6207 18.0108 34.6207 17.2989C34.6207 16.587 35.1978 16.0099 35.9097 16.0099H37.4118V14.5078C37.4118 13.7959 37.989 13.2187 38.7009 13.2187C39.4128 13.2187 39.9899 13.7959 39.9899 14.5078V16.0099H41.4921C42.204 16.0099 42.7812 16.587 42.7812 17.2989C42.7812 18.0108 42.204 18.588 41.4921 18.588H39.9899Z" fill="#F75D37"/>
</svg>
