<svg width="28" height="28" viewBox="0 0 28 28" fill="none" xmlns="http://www.w3.org/2000/svg">
<g clip-path="url(#clip0_2_197)">
<path d="M8.09253 21.6182C7.8309 21.0906 7.63818 20.5293 7.52481 19.9549C7.32307 18.9324 7.3648 17.9006 7.64885 16.888L8.31893 14.4993L9.09533 11.7317L10.8735 13.5885L12.6103 10.8201L14.0001 8.60461L15.3899 10.82L17.1266 13.5884L18.9048 11.7316L19.6812 14.4993L20.3513 16.888C20.6353 17.9005 20.677 18.9323 20.4753 19.9549C20.362 20.5293 20.1692 21.0906 19.9076 21.6182C22.8186 19.3216 24.3186 15.38 23.2173 11.4541L21.9229 6.83985L19.5158 9.35328L14.0001 0.560791L8.48431 9.35328L6.07724 6.83985L4.78278 11.4541C3.68149 15.38 5.18151 19.3217 8.09253 21.6182Z" fill="#F75D37"/>
<path d="M18.7716 17.3312L18.1015 14.9425L16.8555 16.2436L14 11.6919L11.1446 16.2436L9.89855 14.9425L9.22846 17.3312C8.35477 20.4456 10.6431 23.5799 13.8773 23.6378C13.9591 23.6393 14.041 23.6393 14.1228 23.6378C17.3569 23.5799 19.6453 20.4456 18.7716 17.3312ZM4.48219 22.9549C3.35442 23.3881 2.7913 24.6535 3.22454 25.7814L3.32216 26.0356C3.75534 27.1633 5.02075 27.7264 6.14857 27.2932L11.8843 25.0901C9.78955 24.701 7.86581 23.7201 6.31537 22.2508L4.48219 22.9549ZM23.5178 22.9549L21.6846 22.2508C20.1342 23.7201 18.2104 24.701 16.1157 25.0901L21.8514 27.2932C22.9792 27.7264 24.2447 27.1633 24.6778 26.0356L24.7755 25.7814C25.2087 24.6535 24.6456 23.3881 23.5178 22.9549ZM25.8125 19.2071H23.9673C23.6836 19.7594 23.3549 20.2873 22.9846 20.7857C22.9139 20.8804 22.8418 20.9741 22.7683 21.0666L24.1061 21.4234C25.0607 21.79 25.8153 22.5065 26.231 23.4406C26.2809 23.5529 26.3255 23.6675 26.3645 23.784C27.3054 23.5394 28 22.6844 28 21.6669V21.3947C28 20.1865 27.0206 19.2071 25.8125 19.2071ZM5.28992 21.1383C5.19615 21.0226 5.10466 20.9051 5.0155 20.7858C4.64519 20.2874 4.3165 19.7594 4.03277 19.2072H2.1875C0.979398 19.2072 0 20.1866 0 21.3947V21.6669C0 22.6844 0.694641 23.5394 1.63554 23.7841C1.67461 23.6676 1.71916 23.553 1.76903 23.4407C2.18471 22.5065 2.93934 21.7901 3.89391 21.4234L5.28992 21.1383Z" fill="#F75D37"/>
</g>
<defs>
<clipPath id="clip0_2_197">
<rect width="28" height="28" fill="white"/>
</clipPath>
</defs>
</svg>
