<svg width="56" height="56" viewBox="0 0 56 56" fill="none" xmlns="http://www.w3.org/2000/svg">
<path d="M27.3289 47.1527C24.26 45.7716 22.2868 42.7199 22.2868 39.3544V26.7212H25.2225C27.0702 26.7221 28.6644 24.7128 27.8678 23.0911C25.531 18.3695 22.1244 13.5895 19.1869 8.89117C18.1702 7.28237 15.9083 7.28237 14.8916 8.89117C11.9533 13.5895 8.54665 18.3695 6.20993 23.0911C5.41241 24.7119 7.0066 26.7221 8.85518 26.7212H11.7832V39.351C11.7832 44.302 15.7966 48.3154 20.7476 48.3154H27.0797C27.7345 48.3154 27.9262 47.4217 27.3289 47.1535V47.1527Z" fill="#F75D37"/>
<path d="M28.6708 8.84746C31.7397 10.2285 33.7129 13.2803 33.7129 16.6457V29.2798H30.7772C28.9294 29.2789 27.3352 31.2882 28.1319 32.9099C30.4686 37.6315 33.8753 42.4114 36.8127 47.1098C37.8294 48.7186 40.0914 48.7186 41.108 47.1098C44.0455 42.4123 47.4522 37.6323 49.7889 32.9099C50.5864 31.2891 48.9922 29.2789 47.1436 29.2798H44.2156V16.65C44.2156 11.699 40.2022 7.68555 35.2512 7.68555H28.9191C28.2643 7.68555 28.0726 8.57933 28.6699 8.84746H28.6708Z" fill="#F75D37"/>
</svg>
