<svg width="56" height="56" viewBox="0 0 56 56" fill="none" xmlns="http://www.w3.org/2000/svg">
<path d="M38.5577 20.6727L42.2867 24.4026C44.5203 26.6362 44.5203 29.9378 44.5203 29.9378L45.1137 28.9434C46.0907 27.3054 46.839 25.3395 46.7144 23.7228C46.5106 21.0765 44.8418 19.0375 43.8442 18.0403L42.5167 16.7133L45.156 14.0735L35.6016 13.7323L35.9433 23.2863L38.5577 20.6727ZM17.4424 35.4694L13.713 31.7409C11.4794 29.5064 11.4794 26.2052 11.4794 26.2052L10.886 27.1992C9.90952 28.8367 9.16065 30.803 9.28532 32.4194C9.48907 35.0665 11.1574 37.1055 12.156 38.1023L13.483 39.4298L10.8432 42.0691L20.3982 42.4104L20.0565 32.8568L17.4424 35.4694ZM18.981 14.2842C18.981 14.6172 19.108 14.8707 19.3624 15.045C19.6158 15.2194 20.0008 15.3546 20.5155 15.4494V13.1665C19.9373 13.2304 19.5362 13.3593 19.3146 13.5533C19.0923 13.7474 18.981 13.9907 18.981 14.2842ZM23.5177 18.463C23.2753 18.2929 22.905 18.1641 22.406 18.0771V20.3116C23.3884 20.1852 23.8797 19.8204 23.8797 19.2178C23.8797 18.8857 23.7592 18.6336 23.5177 18.463Z" fill="#F75D37"/>
<path d="M32.1826 16.7448C32.1826 10.8108 27.3718 6 21.4377 6C15.5032 6 10.6929 10.8108 10.6929 16.7448C10.6929 22.6794 15.5032 27.4897 21.4377 27.4897C27.3718 27.4902 32.1826 22.6798 32.1826 16.7448ZM25.4316 21.5598C24.7224 22.1384 23.7146 22.4991 22.4064 22.6412V23.8665H20.516V22.7015C19.7387 22.6775 19.0078 22.6086 18.3219 22.494C17.6366 22.3786 17.0681 22.218 16.6163 22.012V19.6817C16.9141 19.7895 17.2156 19.8867 17.5202 19.9734C17.8179 20.0577 18.1192 20.1292 18.4231 20.1877C18.7322 20.247 19.0579 20.2944 19.3978 20.3302C19.7387 20.3657 20.1117 20.3878 20.516 20.3955V17.7917C20.0158 17.7203 19.5196 17.6229 19.0294 17.5001C18.5381 17.3777 18.097 17.1938 17.7042 16.9472C17.3119 16.7021 16.9921 16.3769 16.7465 15.9721C16.5018 15.5683 16.3781 15.0453 16.3781 14.404C16.3781 13.8801 16.4733 13.4151 16.6633 13.0067C16.8532 12.5982 17.127 12.2459 17.4838 11.9483C17.8407 11.6507 18.2746 11.4115 18.786 11.2289C19.2971 11.0472 19.8734 10.9202 20.5155 10.849V9.62315H22.4059V10.8117C22.9841 10.8439 23.5733 10.9097 24.1713 11.0086C24.7693 11.1074 25.318 11.245 25.8175 11.4193V13.773C24.5981 13.377 23.4592 13.1543 22.4059 13.107V15.7467C22.9045 15.8255 23.3986 15.9305 23.8861 16.0613C24.3737 16.1924 24.8093 16.3828 25.1943 16.6326C25.5779 16.882 25.8916 17.2089 26.1331 17.6133C26.3751 18.0171 26.4961 18.5369 26.4961 19.1712C26.4965 20.1849 26.1409 20.9807 25.4316 21.5598ZM34.7708 28.5104C28.8363 28.5104 24.026 33.3208 24.026 39.2552C24.026 45.1893 28.8364 50.0001 34.7708 50.0001C40.7049 50.0001 45.5157 45.1893 45.5157 39.2552C45.5157 33.3208 40.7049 28.5104 34.7708 28.5104ZM39.1014 45.3544C38.9271 45.4258 38.7229 45.491 38.4892 45.5504C38.2546 45.6102 38.0113 45.6589 37.7579 45.6989C37.504 45.7384 37.2441 45.7683 36.9792 45.7881C36.7138 45.8075 36.458 45.8175 36.212 45.8175C32.9388 45.8175 30.9417 44.5176 30.2204 41.9179H28.6869V40.0041H29.9233C29.9154 39.8951 29.9094 39.7859 29.9053 39.6766C29.9014 39.5677 29.8995 39.4586 29.8993 39.3496C29.8993 39.0961 29.9113 38.85 29.9352 38.6127H28.6869V36.6983H30.2563C30.6519 35.3667 31.3538 34.3424 32.3606 33.6248C33.3661 32.9073 34.6591 32.5485 36.2364 32.5485C36.4746 32.5485 36.7253 32.5609 36.9916 32.5843C37.2566 32.6083 37.5123 32.64 37.7584 32.6795C38.0036 32.7196 38.234 32.7683 38.4479 32.8281C38.6618 32.8879 38.8407 32.9495 38.9828 33.0125V35.39C38.6181 35.2636 38.2096 35.1564 37.7583 35.0689C37.3066 34.982 36.8586 34.9383 36.4147 34.9383C34.8453 34.9383 33.7874 35.5248 33.24 36.6977H37.2587V38.6122H32.8007C32.7764 38.8256 32.7649 39.0519 32.7649 39.2902C32.7649 39.4162 32.769 39.5478 32.7764 39.6825C32.7846 39.8173 32.7925 39.924 32.8007 40.0036H36.3678V41.9176H33.2166C33.4778 42.4566 33.8711 42.8426 34.3941 43.0771C34.9171 43.3103 35.6066 43.4276 36.4626 43.4276C36.6608 43.4276 36.876 43.4161 37.1102 43.3922C37.347 43.3681 37.583 43.3362 37.8177 43.2965C38.0495 43.2587 38.2797 43.2111 38.5076 43.1539C38.7284 43.0987 38.9275 43.0394 39.1019 42.9755V45.3544H39.1014Z" fill="#F75D37"/>
</svg>
