<svg width="20" height="20" viewBox="0 0 20 20" fill="none" xmlns="http://www.w3.org/2000/svg">
<path d="M9.30518 4.44433H4.44406C4.07571 4.44433 3.72244 4.59066 3.46197 4.85113C3.2015 5.11159 3.05518 5.46486 3.05518 5.83322V15.5554C3.05518 15.9238 3.2015 16.2771 3.46197 16.5375C3.72244 16.798 4.07571 16.9443 4.44406 16.9443H14.1663C14.5346 16.9443 14.8879 16.798 15.1484 16.5375C15.4088 16.2771 15.5552 15.9238 15.5552 15.5554V10.6943M14.5135 3.40266C14.7898 3.1264 15.1645 2.97119 15.5552 2.97119C15.9459 2.97119 16.3206 3.1264 16.5968 3.40266C16.8731 3.67893 17.0283 4.05363 17.0283 4.44433C17.0283 4.83503 16.8731 5.20973 16.5968 5.486L9.99962 12.0832L7.22184 12.7777L7.91629 9.99989L14.5135 3.40266Z" stroke="white" stroke-width="1.5" stroke-linecap="round" stroke-linejoin="round"/>
</svg>
