<svg width="17" height="11" viewBox="0 0 17 11" fill="none" xmlns="http://www.w3.org/2000/svg">
<path d="M8.5 0C4.63636 0 1.33682 2.28067 0 5.5C1.33682 8.71933 4.63636 11 8.5 11C12.3636 11 15.6632 8.71933 17 5.5C15.6632 2.28067 12.3636 0 8.5 0ZM8.5 9.16667C6.36727 9.16667 4.63636 7.524 4.63636 5.5C4.63636 3.476 6.36727 1.83333 8.5 1.83333C10.6327 1.83333 12.3636 3.476 12.3636 5.5C12.3636 7.524 10.6327 9.16667 8.5 9.16667ZM8.5 3.3C7.21727 3.3 6.18182 4.28267 6.18182 5.5C6.18182 6.71733 7.21727 7.7 8.5 7.7C9.78273 7.7 10.8182 6.71733 10.8182 5.5C10.8182 4.28267 9.78273 3.3 8.5 3.3Z" fill="#C4C4C4"/>
</svg>
