<svg width="24" height="24" viewBox="0 0 24 24" fill="none" xmlns="http://www.w3.org/2000/svg">
<g clip-path="url(#clip0_2_1696)">
<path d="M14.7365 2.47718L13.658 3.5322L13.913 5.02222C13.9542 5.26522 13.7681 5.48972 13.5185 5.48972C13.383 5.48972 13.4534 5.50777 12 4.74071L10.6679 5.44372C10.3754 5.59813 10.0315 5.34932 10.0869 5.02222L10.3419 3.5322L9.26341 2.47718C9.02601 2.24518 9.15901 1.84287 9.48541 1.79517L10.9744 1.57817L11.6409 0.223147C11.7874 -0.0741573 12.2123 -0.0746073 12.359 0.223147L13.0255 1.57817L14.5145 1.79517C14.8415 1.84297 14.9734 2.24568 14.7365 2.47718ZM7.82614 4.52426L7.77889 4.24876C7.96384 4.06845 8.1711 3.92315 8.08025 3.6436C7.98944 3.36419 7.73449 3.36804 7.48074 3.33114L7.35703 3.08049C7.21063 2.78378 6.78618 2.78358 6.63962 3.08049L6.51592 3.33114C6.26032 3.36829 6.00721 3.36399 5.91641 3.6436C5.82561 3.923 6.03417 4.06975 6.21777 4.24876L6.17052 4.52426C6.11462 4.85031 6.45782 5.09997 6.75093 4.94592L6.99828 4.81581C7.25153 4.94902 7.30678 4.99187 7.43174 4.99187C7.67854 4.99187 7.86824 4.76956 7.82614 4.52426ZM4.32609 6.52429L4.27884 6.24878C4.46379 6.06848 4.67104 5.92318 4.58019 5.64363C4.48939 5.36422 4.23444 5.36807 3.98068 5.33117L3.85698 5.08052C3.71058 4.78381 3.28612 4.78361 3.13957 5.08052L3.01587 5.33117C2.76027 5.36832 2.50716 5.36402 2.41636 5.64363C2.32556 5.92303 2.53411 6.06978 2.71772 6.24878L2.67047 6.52429C2.61456 6.85034 2.95777 7.1 3.25087 6.94595L3.49823 6.81584C3.75148 6.94905 3.80673 6.9919 3.93168 6.9919C4.17849 6.9919 4.36819 6.76959 4.32609 6.52429ZM17.8292 4.52426L17.782 4.24876C17.9669 4.06845 18.1742 3.92315 18.0833 3.6436C17.9925 3.36419 17.7376 3.36804 17.4838 3.33114C17.3695 3.09939 17.2954 2.85754 17.0015 2.85754C16.7077 2.85754 16.6326 3.10119 16.5191 3.33114L16.2425 3.37134C15.9151 3.41894 15.7837 3.82255 16.0208 4.05365L16.2209 4.24876C16.1772 4.50346 16.095 4.74271 16.3328 4.91547C16.5705 5.08817 16.7745 4.93517 17.0015 4.81581C17.2547 4.94902 17.31 4.99187 17.4349 4.99187C17.6816 4.99187 17.8713 4.76956 17.8292 4.52426ZM21.3293 6.52429L21.282 6.24878C21.467 6.06848 21.6742 5.92318 21.5834 5.64363C21.4926 5.36422 21.2376 5.36807 20.9839 5.33117C20.8695 5.09942 20.7955 4.85756 20.5015 4.85756C20.2078 4.85756 20.1326 5.10122 20.0191 5.33117L19.7425 5.37137C19.4151 5.41897 19.2838 5.82258 19.5208 6.05368L19.721 6.24878C19.6773 6.50349 19.595 6.74274 19.8329 6.91549C20.0705 7.0882 20.2745 6.93519 20.5015 6.81584C20.7548 6.94905 20.81 6.9919 20.935 6.9919C21.1817 6.9919 21.3713 6.76959 21.3293 6.52429ZM6.10782 23.5886C6.11467 23.8139 5.93341 24 5.70796 24H3.59978C2.71612 24 1.99976 23.2836 1.99976 22.4V14.3999C1.99976 13.5162 2.71612 12.7998 3.59978 12.7998H5.69981C5.92071 12.7998 6.09982 12.9793 6.09982 13.2002C6.09937 20.7333 6.08677 22.8984 6.10782 23.5886ZM4.7498 16.7999C4.7498 16.579 4.57069 16.3999 4.34979 16.3999C4.12889 16.3999 3.94978 16.579 3.94978 16.7999V18.4999C3.94978 18.7208 4.12889 18.8999 4.34979 18.8999C4.57069 18.8999 4.7498 18.7208 4.7498 18.4999V16.7999ZM22 14.3999V22.4C22 23.2836 21.2837 24 20.4 24H18.2922C18.0668 24 17.8854 23.8138 17.8923 23.5885C17.9135 22.8996 17.9004 20.7377 17.9 13.2002C17.9 12.9793 18.0791 12.7998 18.3 12.7998H20.4C21.2837 12.7998 22 13.5162 22 14.3999ZM20.05 16.7999C20.05 16.579 19.8709 16.3999 19.65 16.3999C19.4291 16.3999 19.25 16.579 19.25 16.7999V18.4999C19.25 18.7208 19.4291 18.8999 19.65 18.8999C19.8709 18.8999 20.05 18.7208 20.05 18.4999V16.7999ZM10.9999 24H12.9999C13.2208 24 13.3999 23.8209 13.3999 23.6V19.8499C13.3999 19.629 13.2208 19.4499 12.9999 19.4499H10.9999C10.779 19.4499 10.5999 19.629 10.5999 19.8499V23.6C10.5999 23.8209 10.779 24 10.9999 24ZM17.1 8.69977V23.6C17.1 23.8209 16.9209 24 16.7 24H14.5999C14.379 24 14.1999 23.8209 14.1999 23.6V19.0499C14.1999 18.829 14.0208 18.6499 13.7999 18.6499H10.1999C9.97897 18.6499 9.79987 18.829 9.79987 19.0499V23.6C9.79987 23.8209 9.62077 24 9.39986 24H7.29983C7.07893 24 6.89983 23.8209 6.89983 23.6V8.69977C6.89983 7.81611 7.61619 7.09975 8.49985 7.09975H15.5C16.3837 7.09975 17.1 7.81611 17.1 8.69977ZM13.9999 15.3999C13.9999 15.179 13.8208 14.9999 13.5999 14.9999H10.3999C10.179 14.9999 9.99987 15.179 9.99987 15.3999C9.99987 15.6208 10.179 15.7999 10.3999 15.7999H13.5999C13.8209 15.7999 13.9999 15.6208 13.9999 15.3999ZM14.6999 11.5498C14.6999 11.3289 14.5208 11.1498 14.2999 11.1498H9.69987C9.47897 11.1498 9.29986 11.3289 9.29986 11.5498C9.29986 11.7707 9.47897 11.9498 9.69987 11.9498H14.2999C14.5209 11.9498 14.6999 11.7707 14.6999 11.5498Z" fill="#F75D37"/>
</g>
<defs>
<clipPath id="clip0_2_1696">
<rect width="24" height="24" fill="white"/>
</clipPath>
</defs>
</svg>
