<svg width="28" height="28" viewBox="0 0 28 28" fill="none" xmlns="http://www.w3.org/2000/svg">
<g clip-path="url(#clip0_2_188)">
<path d="M5.42586 5.28033L3.51717 7.78844H4.76702L2.89062 10.2959H11.3806L9.50356 7.78844H10.7541L8.84472 5.28033H9.90144L7.13561 1.54175L4.36978 5.28033H5.42586Z" fill="#F75D37"/>
<path d="M6.40527 9.79594V13.2581C6.8767 13.0539 7.36574 12.893 7.86635 12.7775V9.79659H7.13581L6.40527 9.79594ZM22.0462 8.0694L20.1369 10.5769H21.3874L19.511 13.085H28.0003L26.1239 10.5769H27.3738L25.4644 8.0694H26.5212L23.7553 4.33081L20.9895 8.0694H22.0462Z" fill="#F75D37"/>
<path d="M23.0246 12.585V15.334C23.2093 15.3579 23.3934 15.385 23.5762 15.4161C23.885 15.4677 24.1898 15.5323 24.4863 15.6092V12.585H23.7551H23.0246ZM14.472 24.7709C12.3534 25.7488 5.56925 28.3461 0.746166 24.1121C-0.962294 22.6123 0.58404 20.5828 2.1743 19.7308C4.99697 18.2226 2.77048 16.5458 5.01828 14.6855C6.24036 13.6734 8.66967 12.4816 12.9812 13.2374C15.7897 13.7296 17.4936 15.7939 20.6347 15.7177C23.7752 15.6402 28.8515 16.4508 27.878 20.7914C27.878 20.7914 27.3594 23.4526 22.6771 23.7949C18.175 24.1231 19.6135 22.3965 14.472 24.7709ZM12.3915 16.7253C10.9472 16.4721 9.01524 16.2725 7.88746 17.3971C6.48258 18.7962 4.11206 22.4895 7.01934 22.8448C8.9416 23.0799 11.0421 22.5431 12.7551 21.7932C14.5327 21.0142 16.4601 21 18.0381 19.8477C19.9242 18.4706 13.6975 16.954 12.3915 16.7253ZM13.1943 4.28232C13.381 4.28232 13.5586 4.32108 13.7195 4.39019C13.6458 4.11809 13.6604 3.82962 13.7612 3.56635C13.8619 3.30308 14.0437 3.07859 14.2802 2.92523C14.5168 2.77188 14.7959 2.69756 15.0774 2.713C15.3588 2.72845 15.6281 2.83284 15.8465 3.01115C15.8931 2.7126 16.0399 2.43878 16.2627 2.23471C16.4856 2.03064 16.7712 1.90845 17.0727 1.88824C17.3742 1.86802 17.6736 1.95098 17.9217 2.12348C18.1698 2.29597 18.3519 2.54774 18.4379 2.8374C18.6871 2.69276 18.9764 2.63284 19.2625 2.66666C19.5487 2.70047 19.8161 2.82619 20.0246 3.02494C20.2332 3.22368 20.3717 3.48472 20.4193 3.76887C20.4668 4.05301 20.4209 4.34492 20.2885 4.60076C20.4959 4.77739 20.644 5.01337 20.7131 5.27688C20.7821 5.54038 20.7686 5.81871 20.6745 6.07432C20.5803 6.32992 20.41 6.5505 20.1866 6.70627C19.9631 6.86205 19.6973 6.94553 19.4249 6.94545C18.2332 6.94481 14.9706 6.94545 13.1943 6.94545C12.8412 6.94545 12.5025 6.80516 12.2528 6.55545C12.0031 6.30573 11.8628 5.96704 11.8628 5.61389C11.8628 5.26074 12.0031 4.92205 12.2528 4.67233C12.5025 4.42261 12.8412 4.28232 13.1943 4.28232Z" fill="#F75D37"/>
</g>
<defs>
<clipPath id="clip0_2_188">
<rect width="28" height="28" fill="white"/>
</clipPath>
</defs>
</svg>
