<svg width="44" height="44" viewBox="0 0 44 44" fill="none" xmlns="http://www.w3.org/2000/svg">
<g clip-path="url(#clip0_2_810)">
<path d="M11.9204 11.7734H11.3686L10.3376 16.9297H12.9513L11.9204 11.7734ZM32.7743 22.0859C33.3309 23.5812 34.0713 24.7915 34.8906 25.8214C35.7099 24.7915 36.5362 23.5811 37.0928 22.0859H32.7743Z" fill="#F75D37"/>
<path d="M40.1327 7.82031H24.124L27.462 34.6052C27.521 35.7008 27.2216 36.7322 26.5066 37.5396L20.8538 44H40.1327C42.2652 44 43.9999 42.2653 43.9999 40.1328V11.7734C43.9999 9.64098 42.2652 7.82031 40.1327 7.82031ZM40.1327 22.0859H39.7885C39.055 24.4392 37.8918 26.2805 36.683 27.7322C37.63 28.5979 38.6426 29.3081 39.6493 30.1036C40.2045 30.5479 40.2951 31.3586 39.8495 31.915C39.4059 32.4706 38.592 32.5607 38.038 32.1152C36.9441 31.2518 35.9173 30.529 34.8905 29.5868C33.8638 30.529 32.9229 31.2518 31.829 32.1152C31.275 32.5607 30.4611 32.4706 30.0175 31.915C29.5719 31.3586 29.6625 30.5479 30.2177 30.1036C31.2244 29.3081 32.1511 28.5979 33.098 27.7322C31.8893 26.2806 30.8119 24.4393 30.0786 22.0859H29.7343C29.0218 22.0859 28.4452 21.5094 28.4452 20.7969C28.4452 20.0844 29.0218 19.5078 29.7343 19.5078H33.6015V18.2188C33.6015 17.5062 34.178 16.9297 34.8905 16.9297C35.603 16.9297 36.1796 17.5062 36.1796 18.2188V19.5078H40.1327C40.8452 19.5078 41.4218 20.0844 41.4218 20.7969C41.4218 21.5094 40.8452 22.0859 40.1327 22.0859Z" fill="#F75D37"/>
<path d="M20.9828 3.38757C20.7424 1.45647 19.092 0 17.1459 0H3.86719C1.73473 0 0 1.73473 0 3.86719V32.3984C0 34.5309 1.73473 36.2656 3.86719 36.2656H24.1958C24.5719 35.8358 24.8871 35.5666 24.9004 35.0055C24.9037 34.8648 21.0003 3.52713 20.9828 3.38757ZM15.8077 24.6389C15.1241 24.7796 14.4317 24.3358 14.2908 23.628L13.4669 19.5078H9.82223L8.99834 23.628C8.8599 24.3254 8.18761 24.7836 7.48146 24.6389C6.78408 24.4991 6.33084 23.8207 6.47058 23.122L9.04862 10.2314C9.16945 9.62964 9.69822 9.19531 10.3125 9.19531H12.9766C13.5908 9.19531 14.1196 9.62964 14.2404 10.2314L16.8186 23.122C16.9583 23.8207 16.5052 24.4991 15.8077 24.6389ZM15.0615 38.8438L15.2827 40.6124C15.4302 41.7969 16.2172 43.0048 17.5117 43.6079L21.8395 38.8438H15.0615Z" fill="#F75D37"/>
</g>
<defs>
<clipPath id="clip0_2_810">
<rect width="44" height="44" fill="white"/>
</clipPath>
</defs>
</svg>
