<svg width="16" height="16" viewBox="0 0 16 16" fill="none" xmlns="http://www.w3.org/2000/svg">
<path d="M6.82509 9.17509C7.16676 9.50009 7.16676 10.0334 6.82509 10.3584C6.50009 10.6834 5.96676 10.6834 5.64176 10.3584C4.86124 9.57674 4.42285 8.51724 4.42285 7.41259C4.42285 6.30795 4.86124 5.24845 5.64176 4.46676L8.59176 1.51676C9.37345 0.736243 10.4329 0.297852 11.5376 0.297852C12.6422 0.297852 13.7017 0.736243 14.4834 1.51676C15.2639 2.29845 15.7023 3.35795 15.7023 4.46259C15.7023 5.56724 15.2639 6.62674 14.4834 7.40843L13.2418 8.65009C13.2501 7.96676 13.1418 7.28343 12.9084 6.63343L13.3001 6.23343C13.5337 6.00233 13.7192 5.7272 13.8457 5.42395C13.9723 5.12071 14.0375 4.79536 14.0375 4.46676C14.0375 4.13816 13.9723 3.81282 13.8457 3.50957C13.7192 3.20632 13.5337 2.93119 13.3001 2.70009C13.069 2.46648 12.7939 2.28102 12.4906 2.15444C12.1874 2.02787 11.862 1.9627 11.5334 1.9627C11.2048 1.9627 10.8795 2.02787 10.5762 2.15444C10.273 2.28102 9.99786 2.46648 9.76676 2.70009L6.82509 5.64176C6.59148 5.87286 6.40602 6.14799 6.27944 6.45124C6.15287 6.75448 6.0877 7.07982 6.0877 7.40843C6.0877 7.73703 6.15287 8.06237 6.27944 8.36562C6.40602 8.66887 6.59148 8.944 6.82509 9.17509ZM9.17509 5.64176C9.50009 5.31676 10.0334 5.31676 10.3584 5.64176C11.1389 6.42345 11.5773 7.48295 11.5773 8.58759C11.5773 9.69224 11.1389 10.7517 10.3584 11.5334L7.40843 14.4834C6.62674 15.2639 5.56724 15.7023 4.46259 15.7023C3.35795 15.7023 2.29845 15.2639 1.51676 14.4834C0.736243 13.7017 0.297852 12.6422 0.297852 11.5376C0.297852 10.4329 0.736243 9.37345 1.51676 8.59176L2.75843 7.35009C2.75009 8.03343 2.85843 8.71676 3.09176 9.37509L2.70009 9.76676C2.46648 9.99786 2.28102 10.273 2.15444 10.5762C2.02787 10.8795 1.9627 11.2048 1.9627 11.5334C1.9627 11.862 2.02787 12.1874 2.15444 12.4906C2.28102 12.7939 2.46648 13.069 2.70009 13.3001C2.93119 13.5337 3.20632 13.7192 3.50957 13.8457C3.81282 13.9723 4.13816 14.0375 4.46676 14.0375C4.79536 14.0375 5.12071 13.9723 5.42395 13.8457C5.7272 13.7192 6.00233 13.5337 6.23343 13.3001L9.17509 10.3584C9.40871 10.1273 9.59417 9.8522 9.72075 9.54895C9.84732 9.24571 9.91249 8.92037 9.91249 8.59176C9.91249 8.26316 9.84732 7.93782 9.72075 7.63457C9.59417 7.33132 9.40871 7.05619 9.17509 6.82509C9.09416 6.74925 9.02965 6.65762 8.98554 6.55585C8.94144 6.45408 8.91868 6.34434 8.91868 6.23343C8.91868 6.12251 8.94144 6.01278 8.98554 5.91101C9.02965 5.80924 9.09416 5.7176 9.17509 5.64176Z" fill="#F75D37"/>
</svg>
