<svg width="17" height="18" viewBox="0 0 17 18" fill="none" xmlns="http://www.w3.org/2000/svg">
<path d="M15.1053 18C15.6575 18 16.1142 17.5487 16.0142 17.0055C15.9168 16.4768 15.7419 15.9585 15.4923 15.4622C15.0876 14.6576 14.4945 13.9266 13.7467 13.3108C12.9989 12.695 12.1112 12.2065 11.1342 11.8732C10.1572 11.5399 9.11012 11.3684 8.05263 11.3684C6.99514 11.3684 5.94801 11.5399 4.97102 11.8732C3.99403 12.2065 3.10632 12.695 2.35856 13.3108C1.6108 13.9266 1.01765 14.6576 0.61297 15.4622C0.363335 15.9585 0.188434 16.4768 0.0910563 17.0055C-0.00897868 17.5487 0.447715 18 1 18L8.05263 18H15.1053Z" fill="#F75D37"/>
<circle cx="8.05222" cy="4.26316" r="4.26316" fill="#F75D37"/>
</svg>
