<svg width="8" height="9" viewBox="0 0 8 9" fill="none" xmlns="http://www.w3.org/2000/svg">
<path fill-rule="evenodd" clip-rule="evenodd" d="M1.72515 1.76934C2.31963 1.21746 3.12887 0.9375 4.00016 0.9375C4.87146 0.9375 5.6807 1.21746 6.27517 1.76934C6.8731 2.32442 7.22933 3.13224 7.22933 4.13651C7.22933 4.90387 6.80229 5.75746 6.3121 6.49722C5.81301 7.2504 5.20877 7.94318 4.78039 8.40109C4.35464 8.85619 3.64568 8.85619 3.21993 8.40109C2.79156 7.94318 2.18732 7.2504 1.68823 6.49722C1.19803 5.75746 0.770996 4.90387 0.770996 4.13651C0.770996 3.13224 1.12723 2.32442 1.72515 1.76934ZM2.43766 3.75C2.43766 2.88706 3.13722 2.1875 4.00016 2.1875C4.86311 2.1875 5.56266 2.88706 5.56266 3.75C5.56266 4.61294 4.86311 5.3125 4.00016 5.3125C3.13722 5.3125 2.43766 4.61294 2.43766 3.75Z" fill="white"/>
</svg>
