<svg width="18" height="18" viewBox="0 0 18 18" fill="none" xmlns="http://www.w3.org/2000/svg">
<path fill-rule="evenodd" clip-rule="evenodd" d="M4.90498 3.1848C5.97504 2.19142 7.43167 1.6875 9 1.6875C10.5683 1.6875 12.025 2.19142 13.095 3.1848C14.1713 4.18396 14.8125 5.63803 14.8125 7.44572C14.8125 8.82697 14.0438 10.3634 13.1615 11.695C12.2631 13.0507 11.1755 14.2977 10.4044 15.122C9.63806 15.9411 8.36194 15.9411 7.59558 15.122C6.82451 14.2977 5.73688 13.0507 4.83852 11.695C3.95617 10.3634 3.1875 8.82697 3.1875 7.44572C3.1875 5.63803 3.82872 4.18396 4.90498 3.1848ZM6.1875 6.75C6.1875 5.1967 7.4467 3.9375 9 3.9375C10.5533 3.9375 11.8125 5.1967 11.8125 6.75C11.8125 8.3033 10.5533 9.5625 9 9.5625C7.4467 9.5625 6.1875 8.3033 6.1875 6.75Z" fill="#F75D37"/>
</svg>
