<svg width="56" height="56" viewBox="0 0 56 56" fill="none" xmlns="http://www.w3.org/2000/svg">
<path fill-rule="evenodd" clip-rule="evenodd" d="M15.26 9.90828C18.5891 6.81775 23.1208 5.25 28.0001 5.25C32.8793 5.25 37.4111 6.81775 40.7401 9.90828C44.0885 13.0168 46.0834 17.5405 46.0834 23.1645C46.0834 27.4617 43.692 32.2418 40.9469 36.3844C38.152 40.6022 34.7683 44.4818 32.3694 47.0461C29.9852 49.5947 26.015 49.5947 23.6308 47.0461C21.2319 44.4818 17.8482 40.6022 15.0533 36.3844C12.3082 32.2418 9.91675 27.4617 9.91675 23.1645C9.91675 17.5405 11.9117 13.0168 15.26 9.90828ZM19.2501 21C19.2501 16.1675 23.1676 12.25 28.0001 12.25C32.8326 12.25 36.7501 16.1675 36.7501 21C36.7501 25.8325 32.8326 29.75 28.0001 29.75C23.1676 29.75 19.2501 25.8325 19.2501 21Z" fill="#F75D37"/>
<g clip-path="url(#clip0_2_801)">
<rect x="28" y="29" width="20" height="20" rx="10" fill="white"/>
<path d="M42.1406 29H33.8594C30.6234 29 28 31.6234 28 34.8594V43.1406C28 46.3766 30.6234 49 33.8594 49H42.1406C45.3766 49 48 46.3766 48 43.1406V34.8594C48 31.6234 45.3766 29 42.1406 29ZM30.2625 37.3176C29.9562 37.0113 29.9566 36.5133 30.2656 36.2098C30.625 35.8563 31.1012 35.4355 31.6887 35.0156C33.5836 33.6609 35.7664 32.9449 38 32.9449C39.341 32.9449 40.6633 33.2031 41.9164 33.7027L40.6988 34.9203C39.8293 34.6461 38.9277 34.5078 38 34.5078C34.7063 34.5078 32.4141 36.2898 31.3621 37.323C31.0563 37.6234 30.5656 37.6211 30.2625 37.318V37.3176ZM33.8734 39.0035C33.6973 39.1391 33.534 39.2746 33.384 39.407C33.075 39.6793 32.607 39.6621 32.3156 39.3711C31.9965 39.052 32.0121 38.5297 32.3504 38.2313C33.5602 37.1648 35.516 35.9031 37.9996 35.9031C38.5426 35.9031 39.0602 35.9633 39.55 36.0688L38.1508 37.468C38.1004 37.4668 38.05 37.4656 37.9992 37.4656C36.5887 37.4656 35.2004 37.9832 33.8727 39.0039L33.8734 39.0035ZM36.459 39.1598L34.3105 41.3082C34.1594 41.0055 34.2172 40.6262 34.4809 40.384C34.9438 39.959 35.6164 39.4605 36.459 39.1594V39.1598ZM33.0613 44.7672C32.8324 44.9961 32.4613 44.9961 32.2328 44.7672C32.0039 44.5383 32.0039 44.1672 32.2328 43.9387L44.1102 32.0613C44.3391 31.8324 44.7102 31.8324 44.9387 32.0613C45.1676 32.2902 45.1676 32.6613 44.9387 32.8898L33.0617 44.7668L33.0613 44.7672ZM37.9996 45.0555C37.1367 45.0555 36.4371 44.3559 36.4371 43.493C36.4371 42.6301 37.1367 41.9305 37.9996 41.9305C38.8625 41.9305 39.5621 42.6301 39.5621 43.493C39.5621 44.3559 38.8625 45.0555 37.9996 45.0555ZM41.5426 41.5129C41.2473 41.8082 40.7711 41.8207 40.4637 41.5383C39.9473 41.0637 39.0727 40.4512 37.9996 40.4512C37.9758 40.4512 37.9523 40.452 37.9289 40.4523L39.2996 39.0816C40.2555 39.3676 41.0125 39.9207 41.5187 40.3852C41.8461 40.6859 41.8566 41.1988 41.5426 41.5129ZM43.684 39.3715C43.393 39.6625 42.925 39.6801 42.616 39.4078C42.4573 39.2679 42.2939 39.1333 42.1262 39.0043C41.5621 38.5707 40.9871 38.2281 40.4039 37.9773L41.577 36.8043C42.4059 37.2309 43.1031 37.7512 43.6488 38.232C43.9871 38.5305 44.0027 39.0527 43.6836 39.3719L43.684 39.3715ZM45.7371 37.3184C45.4332 37.6223 44.9422 37.6227 44.6355 37.3219C44.2388 36.933 43.8115 36.5765 43.3578 36.2559C43.1117 36.082 42.8617 35.9211 42.6086 35.7727L43.7449 34.6363C43.9363 34.757 44.125 34.8836 44.3109 35.0164C44.898 35.4363 45.3742 35.857 45.7336 36.2105C46.0426 36.5145 46.0434 37.0121 45.7367 37.3188L45.7371 37.3184Z" fill="#2A2A2A"/>
</g>
<defs>
<clipPath id="clip0_2_801">
<rect x="28" y="29" width="20" height="20" rx="10" fill="white"/>
</clipPath>
</defs>
</svg>
