<svg width="20" height="20" viewBox="0 0 20 20" fill="none" xmlns="http://www.w3.org/2000/svg">
<path d="M6.19372 20C5.96793 20.0002 5.74529 19.947 5.54398 19.8448C5.34266 19.7425 5.16839 19.5941 5.03539 19.4117L3.29205 17.0217C3.25036 16.9643 3.20004 16.9137 3.14289 16.8717L0.583721 14.9875C0.416891 14.8649 0.27854 14.7077 0.178154 14.5267C0.0777673 14.3456 0.0177191 14.145 0.00212588 13.9386C-0.0134673 13.7321 0.0157633 13.5248 0.0878138 13.3307C0.159864 13.1366 0.273031 12.9604 0.419554 12.8142C0.632444 12.5996 0.90542 12.4547 1.20241 12.3986C1.4994 12.3426 1.80641 12.3779 2.08289 12.5L4.02122 13.3467L7.96205 9.10084C7.98759 9.07332 8.00664 9.04045 8.01782 9.00462C8.02901 8.96879 8.03203 8.93091 8.02668 8.89375C8.02133 8.8566 8.00773 8.82112 7.98689 8.7899C7.96604 8.75868 7.93848 8.73252 7.90622 8.71334L1.12539 5.12417C0.697054 4.86667 0.436221 4.46417 0.380388 4.00334C0.351766 3.77688 0.3755 3.54687 0.44976 3.33102C0.52402 3.11518 0.646826 2.91925 0.808721 2.75834C0.965777 2.59965 1.16061 2.4835 1.3749 2.42082C1.58919 2.35813 1.8159 2.35097 2.03372 2.4L11.9429 4.49834C11.9861 4.50832 12.0312 4.50689 12.0737 4.49418C12.1162 4.48147 12.1547 4.45792 12.1854 4.42584L15.7396 0.650838C16.1196 0.248338 16.7596 0.0116716 17.4962 0.000838225C18.2496 -0.0133284 18.9596 0.226672 19.3671 0.635005C19.7737 1.04167 20.0104 1.74167 19.9996 2.50584C19.9887 3.2425 19.7529 3.8825 19.3512 4.2625L15.5654 7.83C15.5325 7.86051 15.5083 7.89915 15.4951 7.94202C15.4819 7.98489 15.4803 8.03047 15.4904 8.07417L17.7696 18.0975C17.8218 18.3181 17.8165 18.5485 17.7542 18.7665C17.6919 18.9845 17.5747 19.1828 17.4137 19.3425C17.2535 19.5033 17.0589 19.6255 16.8445 19.7C16.6301 19.7745 16.4016 19.7993 16.1762 19.7725C15.9507 19.7466 15.7341 19.6696 15.5428 19.5475C15.3514 19.4253 15.1905 19.2612 15.0721 19.0675L11.2804 12.0592C11.2437 12.0008 11.1612 11.9775 11.1171 11.9717C11.0803 11.9667 11.043 11.9699 11.0077 11.9812C10.9723 11.9924 10.94 12.0114 10.9129 12.0367L6.67455 15.9767L7.52122 17.9158C7.64328 18.1925 7.6786 18.4996 7.62251 18.7967C7.56642 19.0938 7.42156 19.3669 7.20705 19.58C7.07405 19.7132 6.91609 19.8188 6.74221 19.8909C6.56833 19.963 6.38194 20 6.19372 20Z" fill="#F75D37"/>
</svg>
