<svg width="12" height="12" viewBox="0 0 12 12" fill="none" xmlns="http://www.w3.org/2000/svg">
<path d="M2.5671 6.00021L0.586679 0.907704C0.449012 0.553621 0.794345 0.214704 1.13618 0.335454L1.19043 0.358204L11.6904 5.60821C11.7581 5.64202 11.8159 5.69283 11.8581 5.75565C11.9003 5.81848 11.9255 5.89118 11.9312 5.96665C11.9369 6.04212 11.9229 6.11778 11.8907 6.18624C11.8584 6.25469 11.8089 6.3136 11.747 6.35721L11.6904 6.39104L1.19043 11.641C0.850345 11.8108 0.480512 11.4981 0.569179 11.1464L0.586679 11.091L2.5671 6.00021L0.586679 0.907704L2.5671 6.00021ZM1.81343 1.64854L3.33593 5.56271H7.20168C7.3074 5.56271 7.40954 5.601 7.48922 5.67049C7.5689 5.73997 7.62072 5.83597 7.6351 5.94071L7.63918 6.00021C7.63915 6.10601 7.60079 6.20823 7.53118 6.28792C7.46157 6.36761 7.36544 6.41937 7.2606 6.43362L7.20168 6.43771H3.33476L1.81285 10.3519L10.5168 6.00021L1.81285 1.64854H1.81343Z" fill="white"/>
</svg>
