<svg width="56" height="56" viewBox="0 0 56 56" fill="none" xmlns="http://www.w3.org/2000/svg">
<path d="M31.1261 20.25C38.8288 20.25 43.1973 25.1032 43.8317 30.9615H44.0254C48.9814 30.9615 53 34.7756 53 39.4808C53 44.1859 48.9814 48 44.0254 48H18.2267C13.2707 48 9.25213 44.1859 9.25213 39.4808C9.25213 34.7756 13.2707 30.9615 18.2267 30.9615H18.4204C19.061 25.0631 23.4233 20.25 31.1261 20.25ZM22.9765 11C27.5262 11 31.4948 13.553 33.4541 17.3054C32.6817 17.212 31.9042 17.1656 31.1261 17.1667C23.6577 17.1667 18.2142 21.1966 16.2705 27.2985L16.0768 27.9583L15.9331 28.5349L15.4175 28.6274C13.5304 29.0067 11.7678 29.8409 10.2869 31.0557C8.806 32.2705 7.65287 33.8281 6.93037 35.5896C5.44172 34.6947 4.28114 33.3546 3.61733 31.7642C2.95352 30.1737 2.82108 28.4159 3.23927 26.7461C3.65746 25.0763 4.60448 23.5816 5.94266 22.4793C7.28084 21.3771 8.94043 20.7246 10.6802 20.6169L11.3739 20.6015C11.8558 17.9108 13.2829 15.4735 15.4046 13.7177C17.5264 11.9618 20.2073 10.9996 22.9765 11Z" fill="#F75D37"/>
</svg>
